<svg width="256" height="258" viewBox="0 0 256 258" fill="none" xmlns="http://www.w3.org/2000/svg">
<g clip-path="url(#clip0_1843_927)">
<path d="M5.46262 127.455C5.45662 149.132 11.1206 170.298 21.8906 188.954L4.43262 252.696L69.6646 235.592C87.7069 245.414 107.922 250.561 128.465 250.562H128.519C196.334 250.562 251.537 195.379 251.566 127.552C251.579 94.6852 238.791 63.7792 215.557 40.5272C192.327 17.2772 161.432 4.46617 128.514 4.45117C60.6906 4.45117 5.49162 59.6312 5.46362 127.455" fill="url(#paint0_linear_1843_927)"/>
<path d="M1.07 127.416C1.063 149.873 6.93 171.796 18.084 191.12L0 257.147L67.571 239.43C86.189 249.581 107.151 254.933 128.481 254.941H128.536C198.784 254.941 255.97 197.773 256 127.518C256.012 93.47 242.764 61.453 218.7 37.368C194.633 13.286 162.633 0.014 128.536 0C58.276 0 1.098 57.16 1.07 127.416ZM41.311 187.792L38.788 183.787C28.182 166.923 22.584 147.435 22.592 127.424C22.614 69.029 70.138 21.52 128.576 21.52C156.876 21.532 183.472 32.564 203.476 52.58C223.479 72.598 234.486 99.208 234.479 127.51C234.453 185.905 186.928 233.42 128.536 233.42H128.494C109.481 233.41 90.834 228.304 74.572 218.655L70.702 216.36L30.604 226.873L41.311 187.792Z" fill="url(#paint1_linear_1843_927)"/>
<path d="M96.6776 74.1474C94.2916 68.8444 91.7806 68.7374 89.5116 68.6444C87.6536 68.5644 85.5296 68.5704 83.4076 68.5704C81.2836 68.5704 77.8326 69.3694 74.9156 72.5544C71.9956 75.7424 63.7676 83.4464 63.7676 99.1154C63.7676 114.785 75.1806 129.928 76.7716 132.055C78.3646 134.178 98.8046 167.362 131.177 180.128C158.081 190.737 163.556 188.627 169.395 188.095C175.235 187.565 188.239 180.393 190.892 172.956C193.547 165.52 193.547 159.146 192.751 157.814C191.955 156.487 189.831 155.69 186.646 154.098C183.46 152.505 167.802 144.8 164.883 143.737C161.963 142.675 159.84 142.145 157.716 145.334C155.592 148.518 149.493 155.69 147.634 157.814C145.777 159.943 143.918 160.208 140.734 158.615C137.547 157.017 127.29 153.658 115.121 142.809C105.653 134.367 99.2606 123.942 97.4026 120.753C95.5446 117.569 97.2036 115.843 98.8006 114.256C100.232 112.829 101.987 110.537 103.581 108.678C105.169 106.818 105.699 105.491 106.761 103.367C107.824 101.241 107.292 99.3814 106.497 97.7884C105.699 96.1954 99.5096 80.4444 96.6776 74.1474Z" fill="white"/>
</g>
<defs>
<linearGradient id="paint0_linear_1843_927" x1="12361.1" y1="24829" x2="12361.1" y2="4.45117" gradientUnits="userSpaceOnUse">
<stop stop-color="#1FAF38"/>
<stop offset="1" stop-color="#60D669"/>
</linearGradient>
<linearGradient id="paint1_linear_1843_927" x1="12800" y1="25714.7" x2="12800" y2="0" gradientUnits="userSpaceOnUse">
<stop stop-color="#F9F9F9"/>
<stop offset="1" stop-color="white"/>
</linearGradient>
<clipPath id="clip0_1843_927">
<rect width="256" height="258" fill="white"/>
</clipPath>
</defs>
</svg>
