<svg width="15" height="15" viewBox="0 0 15 15" fill="none" xmlns="http://www.w3.org/2000/svg">
<g clip-path="url(#clip0_2249_1055)">
<path d="M5 1.875H4.375C4.04348 1.875 3.72554 2.0067 3.49112 2.24112C3.2567 2.47554 3.125 2.79348 3.125 3.125V6.25C3.125 6.58152 2.9933 6.89946 2.75888 7.13388C2.52446 7.3683 2.20652 7.5 1.875 7.5C2.20652 7.5 2.52446 7.6317 2.75888 7.86612C2.9933 8.10054 3.125 8.41848 3.125 8.75V11.875C3.125 12.5625 3.6875 13.125 4.375 13.125H5" stroke="#0052CD" stroke-width="2" stroke-linecap="round" stroke-linejoin="round"/>
<path d="M10 13.125H10.625C10.9565 13.125 11.2745 12.9933 11.5089 12.7589C11.7433 12.5245 11.875 12.2065 11.875 11.875V8.75C11.875 8.0625 12.4375 7.5 13.125 7.5C12.7935 7.5 12.4755 7.3683 12.2411 7.13388C12.0067 6.89946 11.875 6.58152 11.875 6.25V3.125C11.875 2.79348 11.7433 2.47554 11.5089 2.24112C11.2745 2.0067 10.9565 1.875 10.625 1.875H10" stroke="#0052CD" stroke-width="2" stroke-linecap="round" stroke-linejoin="round"/>
</g>
<defs>
<clipPath id="clip0_2249_1055">
<rect width="15" height="15" fill="white"/>
</clipPath>
</defs>
</svg>
