<svg width="15" height="15" viewBox="0 0 15 15" fill="none" xmlns="http://www.w3.org/2000/svg">
<path d="M7.5005 3.12467C7.50124 2.87468 7.45198 2.62708 7.35563 2.39641C7.25927 2.16575 7.11776 1.95668 6.93942 1.78151C6.76108 1.60633 6.54952 1.46859 6.31716 1.37637C6.08481 1.28416 5.83637 1.23934 5.58644 1.24455C5.33651 1.24976 5.09015 1.30489 4.86184 1.40671C4.63353 1.50852 4.42789 1.65496 4.25701 1.83742C4.08612 2.01987 3.95345 2.23466 3.86679 2.46914C3.78012 2.70362 3.74123 2.95306 3.75238 3.20279C3.38501 3.29725 3.04394 3.47407 2.75502 3.71986C2.4661 3.96565 2.2369 4.27396 2.08478 4.62145C1.93266 4.96893 1.8616 5.34647 1.877 5.72549C1.89239 6.1045 1.99383 6.47504 2.17363 6.80904C1.85749 7.06587 1.6089 7.39606 1.44947 7.77087C1.29004 8.14569 1.2246 8.55379 1.25886 8.95966C1.29311 9.36553 1.42601 9.75689 1.64601 10.0997C1.866 10.4425 2.16642 10.7263 2.52113 10.9265C2.47733 11.2654 2.50347 11.6097 2.59793 11.9381C2.6924 12.2665 2.85319 12.5721 3.07037 12.8359C3.28755 13.0997 3.55651 13.3162 3.86064 13.472C4.16477 13.6278 4.49761 13.7196 4.83861 13.7417C5.17961 13.7639 5.52153 13.7159 5.84325 13.6007C6.16496 13.4855 6.45965 13.3056 6.7091 13.072C6.95856 12.8385 7.15749 12.5563 7.29361 12.2428C7.42972 11.9294 7.50014 11.5914 7.5005 11.2497V3.12467Z" stroke="#0052CD" stroke-linecap="round" stroke-linejoin="round"/>
<path d="M5.625 8.125C6.14972 7.94041 6.60793 7.60437 6.94167 7.15938C7.27542 6.71438 7.46972 6.18042 7.5 5.625" stroke="#0052CD" stroke-linecap="round" stroke-linejoin="round"/>
<path d="M3.75 3.20312C3.76236 3.50546 3.84771 3.80031 3.99875 4.0625" stroke="#0052CD" stroke-linecap="round" stroke-linejoin="round"/>
<path d="M2.17188 6.81C2.28621 6.71688 2.40856 6.63406 2.5375 6.5625" stroke="#0052CD" stroke-linecap="round" stroke-linejoin="round"/>
<path d="M3.74891 11.2502C3.31817 11.2504 2.8947 11.1393 2.51953 10.9277" stroke="#0052CD" stroke-linecap="round" stroke-linejoin="round"/>
<path d="M7.5 8.125H10" stroke="#0052CD" stroke-linecap="round" stroke-linejoin="round"/>
<path d="M7.5 11.25H11.25C11.5815 11.25 11.8995 11.3817 12.1339 11.6161C12.3683 11.8505 12.5 12.1685 12.5 12.5V13.125" stroke="#0052CD" stroke-linecap="round" stroke-linejoin="round"/>
<path d="M7.5 5H12.5" stroke="#0052CD" stroke-linecap="round" stroke-linejoin="round"/>
<path d="M10 5V3.125C10 2.79348 10.1317 2.47554 10.3661 2.24112C10.6005 2.0067 10.9185 1.875 11.25 1.875" stroke="#0052CD" stroke-linecap="round" stroke-linejoin="round"/>
<path d="M10 8.4375C10.1726 8.4375 10.3125 8.29759 10.3125 8.125C10.3125 7.95241 10.1726 7.8125 10 7.8125C9.82741 7.8125 9.6875 7.95241 9.6875 8.125C9.6875 8.29759 9.82741 8.4375 10 8.4375Z" stroke="#0052CD" stroke-linecap="round" stroke-linejoin="round"/>
<path d="M11.25 2.1875C11.4226 2.1875 11.5625 2.04759 11.5625 1.875C11.5625 1.70241 11.4226 1.5625 11.25 1.5625C11.0774 1.5625 10.9375 1.70241 10.9375 1.875C10.9375 2.04759 11.0774 2.1875 11.25 2.1875Z" stroke="#0052CD" stroke-linecap="round" stroke-linejoin="round"/>
<path d="M12.5 13.4375C12.6726 13.4375 12.8125 13.2976 12.8125 13.125C12.8125 12.9524 12.6726 12.8125 12.5 12.8125C12.3274 12.8125 12.1875 12.9524 12.1875 13.125C12.1875 13.2976 12.3274 13.4375 12.5 13.4375Z" stroke="#0052CD" stroke-linecap="round" stroke-linejoin="round"/>
<path d="M12.5 5.3125C12.6726 5.3125 12.8125 5.17259 12.8125 5C12.8125 4.82741 12.6726 4.6875 12.5 4.6875C12.3274 4.6875 12.1875 4.82741 12.1875 5C12.1875 5.17259 12.3274 5.3125 12.5 5.3125Z" stroke="#0052CD" stroke-linecap="round" stroke-linejoin="round"/>
</svg>
