<svg width="15" height="15" viewBox="0 0 15 15" fill="none" xmlns="http://www.w3.org/2000/svg">
<path fill-rule="evenodd" clip-rule="evenodd" d="M11.6821 8.1515C13.5144 8.1515 15 9.66606 15 11.5341C15 13.4021 13.5144 14.9166 11.6821 14.9166C9.84985 14.9166 8.36426 13.4021 8.36426 11.5341C8.36426 9.66606 9.84985 8.1515 11.6821 8.1515ZM12.7844 10.6816C12.8394 10.6729 12.8931 10.6691 12.948 10.6691C13.1775 10.6704 13.3984 10.7538 13.573 10.9454C13.6096 10.9852 13.6438 11.03 13.6768 11.0811C13.7866 11.2528 13.8416 11.4805 13.8391 11.7046C13.8367 11.9236 13.7781 12.1426 13.6597 12.3032C13.5828 12.4077 13.4827 12.4936 13.3643 12.5608C13.2495 12.6267 13.1152 12.6765 12.9651 12.7114L12.937 12.7151H10.4419L10.426 12.7138C10.3345 12.7026 10.2527 12.6802 10.177 12.6491C10.1001 12.6168 10.0305 12.5745 9.9707 12.5222C9.91333 12.4737 9.86328 12.4177 9.82056 12.3579C9.70703 12.1974 9.64478 12.002 9.64355 11.8078C9.64233 11.6112 9.70215 11.4146 9.83154 11.2565C9.87305 11.2055 9.9231 11.1582 9.97925 11.1159C10.0452 11.0674 10.1208 11.0263 10.2063 10.9927C10.2649 10.9691 10.3271 10.9504 10.3943 10.9342C10.4688 10.6305 10.6299 10.3953 10.835 10.2336C11.0278 10.0817 11.2598 9.99336 11.4978 9.96972C11.7358 9.94607 11.98 9.98714 12.1997 10.0942C12.4402 10.2124 12.6489 10.4078 12.7844 10.6816ZM2.15942 3.31909C3.14819 3.65635 4.52515 3.86418 6.05469 3.86418C7.58423 3.86418 8.96118 3.65635 9.94995 3.31909C10.8179 3.02414 11.355 2.66573 11.355 2.31602C11.355 1.96632 10.8179 1.6079 9.94995 1.31295C8.96118 0.976935 7.58423 0.767859 6.05469 0.767859C4.52515 0.767859 3.14819 0.975691 2.15942 1.31295C0.317383 1.94018 0.266113 2.67568 2.15942 3.31909ZM0.761719 5.95619C0.830078 6.28225 1.35132 6.6108 2.15942 6.88584C3.14819 7.2231 4.52515 7.43093 6.05469 7.43093C7.58423 7.43093 8.96118 7.2231 9.94995 6.88584C10.8179 6.59089 11.355 6.23247 11.355 5.88277H11.3586V3.48088C11.0498 3.69618 10.6531 3.88658 10.188 4.04464C9.12231 4.40679 7.65991 4.63204 6.05469 4.63204C4.44824 4.63204 2.98706 4.40803 1.92139 4.04464C1.46118 3.88783 1.06934 3.70115 0.762939 3.48834V5.95619H0.761719ZM7.72705 11.5166C7.19604 11.5714 6.63452 11.6 6.05469 11.6C4.44824 11.6 2.98706 11.376 1.92139 11.0126C1.46118 10.8558 1.06934 10.6691 0.762939 10.4563V12.7574C0.831299 13.0835 1.35254 13.412 2.16064 13.687C3.14941 14.0231 4.52637 14.2321 6.05591 14.2321C6.97388 14.2321 7.83569 14.1575 8.59253 14.0243C8.78296 14.2657 8.99902 14.4848 9.23828 14.6764C8.31909 14.8818 7.22534 15 6.05591 15C4.44946 15 2.98828 14.776 1.92261 14.4126C1.36108 14.2209 0.00976562 13.5937 0.00976562 12.842C0.00976562 12.7537 0.00976562 12.6802 0.00976562 12.5956C0.00732422 9.17075 0 5.74338 0 2.31602C0 1.59919 0.733643 0.990625 1.92017 0.586161C2.98584 0.224011 4.44824 0 6.05469 0C7.66113 0 9.12231 0.224011 10.188 0.587406C11.2683 0.954534 11.9727 1.49216 12.0911 2.12686C12.1057 2.16668 12.113 2.21024 12.113 2.25628V7.52925C11.9666 7.51182 11.8176 7.50311 11.6663 7.50311C11.5625 7.50311 11.4612 7.50684 11.3599 7.51556V7.05011C11.051 7.26541 10.6543 7.45582 10.1892 7.61387C9.12354 7.97602 7.66113 8.20128 6.05591 8.20128C4.44946 8.20128 2.98828 7.97727 1.92261 7.61387C1.4624 7.45707 1.07056 7.27039 0.76416 7.05758V9.35867C0.83252 9.68473 1.35376 10.0133 2.16187 10.2883C3.15063 10.6243 4.52759 10.8334 6.05713 10.8334C6.6687 10.8334 7.25586 10.7998 7.80396 10.7388C7.75269 10.989 7.72705 11.2503 7.72705 11.5166Z" fill="#0052CD"/>
</svg>
