<svg width="15" height="20" viewBox="0 0 15 20" fill="none" xmlns="http://www.w3.org/2000/svg">
<path fill-rule="evenodd" clip-rule="evenodd" d="M7.49369 17.6467C7.84249 17.6467 8.125 17.938 8.125 18.2977C8.125 18.6573 7.84249 18.9487 7.49369 18.9487C7.14489 18.9487 6.86237 18.6573 6.86237 18.2977C6.86237 17.938 7.14489 17.6467 7.49369 17.6467ZM3.4154 10.9822C3.40593 10.9627 3.39489 10.9447 3.38226 10.9268C3.32702 10.8341 3.27178 10.7413 3.21654 10.6355C3.1613 10.5216 3.10606 10.4142 3.05713 10.3149C3.00821 10.2075 2.96086 10.0936 2.91982 9.97966C2.8851 9.88038 2.84407 9.76646 2.80303 9.63138C2.74148 9.43934 2.56787 9.3189 2.38163 9.3189H1.18687C1.14583 9.3189 1.1048 9.31239 1.07639 9.29775C1.04956 9.2831 1.01484 9.26194 0.994318 9.23427C0.967487 9.20498 0.945391 9.17731 0.932765 9.14965C0.918561 9.12198 0.912248 9.07804 0.912248 9.03572V7.48312C0.912248 7.4408 0.918561 7.405 0.926452 7.3757C0.940657 7.34641 0.961174 7.31223 0.995896 7.27643C1.02273 7.24876 1.05114 7.22597 1.07797 7.21946C1.10638 7.20482 1.14741 7.19831 1.18845 7.19831H2.28535C2.50631 7.19831 2.68624 7.03393 2.72727 6.82073C2.7541 6.7003 2.78251 6.58638 2.80934 6.48547C2.84407 6.37155 2.87879 6.26414 2.91982 6.15022C2.96086 6.0428 3.00189 5.92888 3.05713 5.82309C3.10606 5.70917 3.1613 5.6099 3.20865 5.51062C3.30492 5.32509 3.2702 5.11189 3.13289 4.9703L2.27746 4.08007C2.27115 4.07356 2.27115 4.07356 2.26326 4.07356C2.23643 4.0459 2.21433 4.0166 2.2017 3.98893C2.1875 3.96127 2.1875 3.93197 2.1875 3.88966C2.1875 3.84734 2.19381 3.81154 2.20802 3.78224C2.22222 3.74644 2.24274 3.71877 2.27746 3.68297L3.33333 2.6007C3.36806 2.5649 3.39489 2.54374 3.42961 2.52909C3.45802 2.51444 3.49116 2.50793 3.53378 2.50793C3.57481 2.50793 3.60953 2.51444 3.63794 2.52909C3.66635 2.54374 3.6995 2.5649 3.7279 2.59256H3.73422L4.51389 3.39653C4.6654 3.55277 4.90688 3.57393 5.08049 3.44699C5.17045 3.39002 5.26042 3.33306 5.36301 3.2761C5.47348 3.21914 5.57765 3.16218 5.67393 3.11173C5.77809 3.06127 5.88857 3.01245 5.99905 2.97014C6.09533 2.93433 6.20581 2.89202 6.33681 2.8497C6.52304 2.78623 6.63984 2.60721 6.63984 2.41517V1.18154C6.63984 1.13923 6.64615 1.09692 6.66035 1.06762C6.67456 1.03995 6.69508 1.01066 6.71559 0.982993C6.744 0.955326 6.77083 0.932541 6.79766 0.926031C6.82449 0.911384 6.86711 0.904874 6.90814 0.904874H7.96875H7.98138H8.09028C8.13131 0.904874 8.17235 0.911384 8.20076 0.926031C8.22759 0.932541 8.256 0.955326 8.28283 0.982993C8.30335 1.01066 8.32386 1.03995 8.33807 1.06762C8.35227 1.09529 8.35859 1.13923 8.35859 1.18154V2.41354C8.35859 2.60558 8.47538 2.78298 8.66162 2.84808C8.79261 2.89039 8.90309 2.9327 8.99937 2.96851C9.10985 3.01082 9.22033 3.06127 9.3245 3.1101C9.42077 3.16055 9.52494 3.21751 9.63542 3.27447C9.73958 3.33143 9.82797 3.3884 9.91793 3.44536C10.09 3.57393 10.3314 3.55277 10.4845 3.39491L11.2642 2.59093H11.2705C11.2973 2.56327 11.3321 2.54048 11.3605 2.52746C11.3873 2.51282 11.422 2.50631 11.4646 2.50631C11.5057 2.50631 11.5404 2.51282 11.5688 2.52746C11.6035 2.54211 11.6304 2.56327 11.6651 2.59907L12.721 3.68134C12.7557 3.71715 12.7762 3.74481 12.7904 3.78062C12.8046 3.80828 12.8109 3.84409 12.8109 3.88803C12.8109 3.93034 12.8109 3.95964 12.7967 3.98731C12.7825 4.0166 12.762 4.04427 12.7352 4.07193C12.7289 4.07193 12.7289 4.07193 12.721 4.07844L11.8655 4.96867C11.7282 5.11026 11.6935 5.32509 11.7898 5.50899C11.8387 5.60827 11.8939 5.70754 11.9413 5.82147C11.9965 5.92888 12.0376 6.0428 12.0786 6.14859C12.1196 6.26251 12.1544 6.36992 12.1891 6.48385C12.2159 6.58312 12.2443 6.69705 12.2711 6.81911C12.3122 7.03231 12.4921 7.19668 12.7131 7.19668H13.81C13.851 7.19668 13.892 7.20319 13.9205 7.21784C13.9473 7.22435 13.9757 7.2455 14.0025 7.2748C14.0372 7.3106 14.0578 7.34641 14.072 7.37407C14.0783 7.40174 14.0862 7.43755 14.0862 7.48149V9.0341C14.0862 9.07641 14.0799 9.11872 14.0657 9.14802C14.0515 9.17731 14.0309 9.20498 14.0041 9.23265C13.9836 9.26031 13.9489 9.2831 13.922 9.29612C13.8936 9.31077 13.8526 9.31728 13.8116 9.31728H12.6168C12.4306 9.31728 12.2585 9.43771 12.1954 9.62975C12.1544 9.76483 12.1133 9.87875 12.0786 9.97803C12.0376 10.092 11.9886 10.2059 11.9413 10.3133C11.8924 10.4126 11.8371 10.52 11.7819 10.6339C11.7266 10.7413 11.6714 10.8341 11.6162 10.9252C11.6035 10.9431 11.5925 10.961 11.583 10.9806H12.6278C12.672 10.8894 12.7162 10.7918 12.762 10.6909C12.8172 10.5623 12.8725 10.4353 12.9214 10.3068C12.9277 10.2856 12.9419 10.2563 12.9498 10.2352H13.8336C13.9931 10.2352 14.1446 10.2075 14.2819 10.1505C14.4192 10.0936 14.5518 10.0008 14.6622 9.88689C14.7727 9.77297 14.8627 9.6444 14.9179 9.49467C14.9732 9.34494 15 9.19522 15 9.03247V7.48149C15 7.32525 14.9653 7.16901 14.91 7.0258C14.8548 6.88421 14.7727 6.75564 14.6622 6.64171L14.6559 6.6352C14.5455 6.52128 14.4208 6.42851 14.2835 6.37155C14.1461 6.30808 13.9931 6.27879 13.8352 6.27879H13.0824C13.0824 6.25763 13.0761 6.24298 13.0682 6.22182C13.0271 6.08674 12.9861 5.95166 12.9372 5.82309C12.8819 5.68801 12.833 5.55944 12.7778 5.43901C12.7715 5.42436 12.7573 5.40321 12.7509 5.38205L13.3728 4.73432C13.4896 4.6269 13.5732 4.49996 13.6348 4.35674C13.69 4.21515 13.7247 4.05729 13.7247 3.89454C13.7247 3.73017 13.6979 3.58207 13.6348 3.43234C13.5732 3.29075 13.4896 3.16218 13.3791 3.04825H13.3728L12.3169 1.96599C12.2064 1.85206 12.0818 1.76743 11.9366 1.70234C11.7914 1.63886 11.6461 1.60957 11.4883 1.60957C11.3368 1.60957 11.1853 1.63724 11.0401 1.70234C10.8949 1.7593 10.7702 1.85206 10.6597 1.96599L10.1215 2.51444L10.0805 2.49329C9.97001 2.42982 9.84533 2.37285 9.71433 2.30775C9.58965 2.25079 9.46654 2.19383 9.34186 2.14338C9.32134 2.13687 9.29293 2.12222 9.27241 2.11409V1.2027C9.27241 1.03833 9.24558 0.88209 9.19034 0.7405C9.1351 0.597282 9.04514 0.462202 8.93466 0.348279C8.81787 0.234356 8.69318 0.14159 8.55429 0.0846285C8.41067 0.027667 8.26547 0 8.10606 0H7.56155H7.44003H6.89552C6.73611 0 6.59249 0.027667 6.44729 0.0846285C6.30997 0.14159 6.18529 0.234356 6.06692 0.348279C5.95644 0.462202 5.86648 0.597282 5.81124 0.7405C5.756 0.88209 5.72917 1.03995 5.72917 1.2027V2.11409C5.70865 2.1206 5.68024 2.13524 5.65972 2.14338C5.53504 2.19383 5.41193 2.25079 5.28725 2.30775C5.15625 2.37123 5.03157 2.42819 4.92109 2.49329L4.88005 2.51444L4.34186 1.96599C4.23138 1.85206 4.10669 1.7593 3.96149 1.70234C3.81629 1.63886 3.66477 1.60957 3.51326 1.60957C3.35385 1.60957 3.21023 1.63724 3.06503 1.70234C2.91982 1.76581 2.79514 1.85206 2.68466 1.96599L1.62879 3.04825H1.62247C1.51199 3.16218 1.42992 3.29075 1.36679 3.43234C1.30524 3.58044 1.27683 3.73017 1.27683 3.89291C1.27683 4.05729 1.31155 4.21352 1.36679 4.35511C1.42835 4.4967 1.51199 4.62527 1.62879 4.73269L2.25063 5.38042C2.24432 5.40158 2.23011 5.42274 2.2238 5.43738C2.16856 5.55782 2.11963 5.68639 2.06439 5.82147C2.01547 5.95004 1.97443 6.08512 1.9334 6.2202C1.92708 6.24135 1.91919 6.256 1.91919 6.27716H1.16635C1.00694 6.27716 0.855429 6.30645 0.718119 6.36992C0.580808 6.42689 0.456124 6.51965 0.345644 6.63357L0.339331 6.64008C0.228851 6.75401 0.14678 6.88258 0.0915404 7.02417C0.0347222 7.16739 0 7.32525 0 7.48149V9.03247C0 9.19684 0.0268308 9.34494 0.0820707 9.49467C0.137311 9.6444 0.227273 9.77297 0.337753 9.88689C0.448232 10.0008 0.57923 10.0936 0.718119 10.1505C0.855429 10.2075 1.00852 10.2352 1.16635 10.2352H2.05019C2.0565 10.2563 2.07071 10.2856 2.0786 10.3068C2.12753 10.4353 2.18277 10.5623 2.23801 10.6909C2.28535 10.7934 2.32797 10.891 2.37216 10.9806H3.4154V10.9822ZM5.12468 9.54187C4.99369 9.54675 4.89268 9.57442 4.82481 9.62324C4.78535 9.65091 4.75694 9.68508 4.73958 9.72577C4.71907 9.77134 4.7096 9.82667 4.71117 9.89015C4.71591 10.0757 4.81061 10.3198 4.99369 10.6014L4.99684 10.6046L5.59028 11.5795C5.8286 11.9701 6.07797 12.3688 6.38889 12.6601C6.68718 12.9417 7.04861 13.1321 7.52841 13.1337C8.04609 13.1353 8.42645 12.9368 8.73422 12.6406C9.05461 12.3314 9.30713 11.9082 9.55492 11.4851L10.2241 10.3491C10.3488 10.0561 10.3946 9.85922 10.3662 9.74367C10.3488 9.67532 10.2762 9.64114 10.1499 9.63463C10.1231 9.63301 10.0963 9.63301 10.0679 9.63301C10.0379 9.63463 10.0063 9.63626 9.97475 9.63951C9.95739 9.64114 9.94003 9.63951 9.92266 9.63626C9.86269 9.63951 9.80114 9.63463 9.73958 9.6265L9.96843 8.58003C8.26862 8.8567 6.99653 7.55472 5.19886 8.31964L5.32828 9.55163C5.25726 9.55326 5.18782 9.55163 5.12468 9.54187ZM10.3788 9.32216C10.5429 9.37424 10.6487 9.48165 10.6929 9.65579C10.7402 9.84946 10.6881 10.1212 10.5303 10.4923C10.5271 10.4988 10.524 10.5053 10.5208 10.5118L9.84375 11.6608C9.58333 12.1035 9.31818 12.5478 8.96465 12.8896L8.94729 12.9059C8.98043 12.9563 9.01831 13.0116 9.05619 13.0702C9.17298 13.2476 9.30713 13.4511 9.43182 13.6089C10.1673 14.0809 11.785 14.2078 12.4179 14.5708C14.0278 15.4968 13.4407 17.746 13.5575 19.3637C13.5227 19.7461 13.3128 19.9658 12.8993 19.9984H12.4527L12.9435 16.1624C12.9814 15.863 12.7762 15.6188 12.5221 15.6188H9.07039C9.15562 14.9923 9.21717 14.3934 9.24716 13.9409C9.08617 13.757 8.91414 13.4966 8.76578 13.272C8.73264 13.2232 8.70107 13.1744 8.67109 13.1304C8.36016 13.3453 7.99085 13.4787 7.52841 13.4771C7.01231 13.4755 6.60985 13.2932 6.27683 13.0149C6.18371 13.303 6.0464 13.7001 5.91383 13.8905C5.90278 13.9067 5.88857 13.9214 5.87279 13.9328C5.92961 14.3999 6.00852 14.9988 6.10164 15.6205H2.56629C2.31376 15.6205 2.10701 15.8646 2.14489 16.164L2.63573 20H2.1875C1.77399 19.9675 1.56408 19.7477 1.52936 19.3653C1.54987 17.6516 0.918561 15.5782 2.66888 14.5724C3.30966 14.2029 4.96212 14.0776 5.6834 13.591C5.79388 13.3778 5.9154 12.9937 5.98958 12.7659C5.99748 12.7398 5.98485 12.7822 5.99747 12.7447C5.73232 12.4518 5.5161 12.1051 5.30777 11.7634L4.71433 10.7901C4.49653 10.4565 4.38447 10.1505 4.37658 9.89991C4.37342 9.78273 4.39236 9.67532 4.43497 9.58093C4.47917 9.48328 4.54703 9.40028 4.63857 9.33681C4.68119 9.30751 4.73011 9.28147 4.7822 9.26031C4.74432 8.73139 4.72854 8.06575 4.75379 7.50915C4.76641 7.37733 4.79167 7.24388 4.82639 7.11205C5.04419 6.31134 5.71181 5.73358 6.47412 5.4618C6.84343 5.32997 6.70139 5.01587 7.07544 5.03702C7.96244 5.08748 9.32923 5.67662 9.8548 6.30157C10.5934 7.17552 10.4025 8.25291 10.3788 9.32216ZM6.31944 14.6782C6.01957 14.3266 5.99432 13.9588 6.31944 13.5699C6.69508 13.6675 7.03914 13.8351 7.35638 14.0614C7.42424 14.0304 7.50473 14.0174 7.58207 14.0239C7.91193 13.7831 8.33175 13.6854 8.6995 13.5048C9.13826 13.9458 9.09091 14.351 8.66004 14.727C8.41856 14.67 8.18971 14.5821 7.97033 14.4666C7.96402 14.5252 7.94981 14.5887 7.92298 14.657L8.03504 15.6188H7.14015L7.25221 14.657C7.18277 14.5349 7.15593 14.4308 7.15751 14.3445C6.8971 14.5057 6.61458 14.6098 6.31944 14.6782Z" fill="#0052CD"/>
</svg>
