<svg width="15" height="15" viewBox="0 0 15 15" fill="none" xmlns="http://www.w3.org/2000/svg">
<g clip-path="url(#clip0_2249_1064)">
<path d="M6.875 5H3.125C2.43464 5 1.875 5.55964 1.875 6.25V12.5C1.875 13.1904 2.43464 13.75 3.125 13.75H6.875C7.56536 13.75 8.125 13.1904 8.125 12.5V6.25C8.125 5.55964 7.56536 5 6.875 5Z" stroke="#0052CD" stroke-width="2" stroke-linecap="round" stroke-linejoin="round"/>
<path d="M3.125 2.5C3.125 2.16848 3.2567 1.85054 3.49112 1.61612C3.72554 1.3817 4.04348 1.25 4.375 1.25H11.875C12.2065 1.25 12.5245 1.3817 12.7589 1.61612C12.9933 1.85054 13.125 2.16848 13.125 2.5V12.5C13.125 12.8315 12.9933 13.1495 12.7589 13.3839C12.5245 13.6183 12.2065 13.75 11.875 13.75H10.375" stroke="#0052CD" stroke-width="2" stroke-linecap="round" stroke-linejoin="round"/>
<path d="M5 11.25H5.00625" stroke="#0052CD" stroke-width="2" stroke-linecap="round" stroke-linejoin="round"/>
</g>
<defs>
<clipPath id="clip0_2249_1064">
<rect width="15" height="15" fill="white"/>
</clipPath>
</defs>
</svg>
